<svg viewBox="0 0 4267 4267" xmlns="http://www.w3.org/2000/svg" xml:space="preserve" fill-rule="evenodd" clip-rule="evenodd" stroke-linejoin="round" stroke-miterlimit="2"><path d="M1829 2000a3771 3771 0 0 0-637 1425l-9-42c-9-172 15-345 71-508 4-42 17-79 34-117a842 842 0 0 1-105-683c50-196 142-367 275-512l-8 195c-7 159 36 316 121 450v-33c-19-177-22-356-8-533 16-134 70-250 158-346a862 862 0 0 1 421-263c-50 70-86 150-104 234a975 975 0 0 0-21 375l4-5 8-49c7-53 18-104 34-155a767 767 0 0 1 216-408 775 775 0 0 1 467-187c113-11 226-6 337 16 67 246 34 479-91 700a736 736 0 0 1-429 308c-113 30-221 46-334 59 159 37 321 33 484-13l100-41 4 4a688 688 0 0 1-275 271c-182 94-380 154-584 175l71 12 63 8c141 13 279-4 412-45l9 4a770 770 0 0 1-284 221c-141 62-291 100-441 112 95 33 200 50 308 54l50 5c-8 4-8 8 0 12a760 760 0 0 1-708 175c112-304 262-592 445-854l5-7c199-276 431-528 691-751l-8-5a3134 3134 0 0 0-742 742Z" fill="#030303"/></svg>